<?xml version="1.0" encoding="UTF-8"?>
<svg width="512" height="512" viewBox="0 0 512 512" fill="none" xmlns="http://www.w3.org/2000/svg">
  <!-- Background -->
  <rect width="512" height="512" rx="128" fill="#0099FF"/>
  
  <!-- Phone outline -->
  <path d="M256 96C204 96 176 124 176 176V336C176 388 204 416 256 416H296C348 416 376 388 376 336V176C376 124 348 96 296 96H256ZM256 376C234 376 216 358 216 336C216 314 234 296 256 296C278 296 296 314 296 336C296 358 278 376 256 376ZM336 256H216V136H336V256Z" fill="white"/>
  
  <!-- Signal Waves -->
  <path d="M208 200C190 200 176 214 176 232C176 250 190 264 208 264C226 264 240 250 240 232C240 214 226 200 208 200ZM208 248C199 248 192 241 192 232C192 223 199 216 208 216C217 216 224 223 224 232C224 241 217 248 208 248Z" fill="white"/>
  <path d="M208 168C172 168 144 196 144 232C144 268 172 296 208 296C244 296 272 268 272 232C272 196 244 168 208 168ZM208 280C181 280 160 259 160 232C160 205 181 184 208 184C235 184 256 205 256 232C256 259 235 280 208 280Z" fill="white"/>
  <path d="M208 136C154 136 112 178 112 232C112 286 154 328 208 328C262 328 304 286 304 232C304 178 262 136 208 136ZM208 312C163 312 128 277 128 232C128 187 163 152 208 152C253 152 288 187 288 232C288 277 253 312 208 312Z" fill="white"/>
</svg> 